<?xml version="1.0" standalone="no"?>
<!DOCTYPE svg PUBLIC "-//W3C//DTD SVG 20010904//EN"
 "http://www.w3.org/TR/2001/REC-SVG-20010904/DTD/svg10.dtd">
<svg version="1.0" xmlns="http://www.w3.org/2000/svg"
 width="300.000000pt" height="300.000000pt" viewBox="0 0 300.000000 300.000000"
 preserveAspectRatio="xMidYMid meet">
<metadata>
Created by potrace 1.14, written by Peter Selinger 2001-2017
</metadata>
<g transform="translate(0.000000,300.000000) scale(0.100000,-0.100000)"
fill="#000000" stroke="none">
<path d="M0 1500 l0 -1500 1500 0 1500 0 0 1500 0 1500 -1500 0 -1500 0 0
-1500z m2215 1284 c248 -65 450 -260 600 -578 224 -473 224 -947 0 -1422 -151
-320 -350 -511 -605 -580 -105 -29 -281 -24 -395 10 -193 58 -340 151 -629
396 -337 286 -404 327 -703 431 -106 36 -218 82 -249 100 -124 74 -212 192
-222 300 l-5 49 125 0 c83 0 128 -4 136 -12 9 -9 12 -9 12 0 0 9 50 12 196 12
163 0 195 -2 191 -14 -4 -9 0 -12 13 -9 17 5 33 -10 36 -34 1 -7 -3 -13 -9
-13 -5 0 -8 -3 -5 -6 4 -3 15 -1 27 5 12 7 22 7 26 2 7 -12 44 -6 59 9 17 17
27 11 22 -15 -3 -15 0 -25 7 -26 9 0 8 -2 0 -6 -20 -7 -15 -20 9 -26 20 -6 20
-7 5 -30 -16 -24 -15 -24 14 -22 18 2 29 -2 29 -11 0 -7 9 -16 20 -19 11 -4
18 -11 14 -16 -3 -5 -11 -6 -17 -3 -9 5 -8 3 0 -6 10 -11 10 -17 0 -29 -10
-12 -9 -13 2 -6 10 6 13 4 9 -7 -4 -8 2 -20 13 -26 14 -9 19 -9 19 -1 0 8 4 8
14 0 12 -10 15 -6 21 19 4 16 8 30 10 30 16 0 35 -15 35 -28 0 -12 3 -13 12
-4 16 16 38 15 38 -2 0 -8 7 -17 16 -20 8 -3 12 -10 9 -16 -3 -5 -1 -10 4 -10
6 0 11 7 11 15 0 8 4 15 10 15 5 0 7 7 4 15 -5 11 0 14 22 11 16 -2 38 -7 48
-12 16 -6 18 -4 14 14 -7 26 18 38 31 14 9 -14 11 -14 12 -2 1 8 1 19 0 23 -1
5 8 11 19 14 11 3 17 10 13 16 -3 6 -1 7 5 3 13 -8 58 58 68 100 7 25 8 26 15
9 4 -11 8 -39 8 -62 1 -27 6 -43 14 -43 7 0 8 -3 2 -8 -15 -10 -14 -52 1 -52
22 0 27 -21 8 -35 -18 -13 -17 -14 9 -20 32 -8 33 -12 10 -37 -16 -17 -16 -20
2 -36 10 -9 15 -12 11 -6 -4 8 3 11 19 10 16 0 24 -6 22 -16 -1 -8 3 -15 10
-15 17 0 28 -15 12 -16 -8 -1 -17 -1 -22 0 -4 1 -6 -12 -5 -29 2 -21 7 -30 20
-30 10 0 18 -5 18 -12 0 -6 9 -1 20 12 18 21 20 22 21 4 1 -10 1 -27 0 -36 -3
-21 3 -22 31 -7 18 10 20 9 14 -6 -4 -13 -2 -16 9 -12 8 4 17 2 20 -3 3 -5 -3
-11 -13 -14 -10 -3 -26 -21 -37 -38 -15 -26 -15 -30 -3 -20 18 15 31 3 19 -17
-5 -7 -6 -22 -3 -34 4 -17 2 -19 -14 -13 -10 4 -15 4 -11 0 4 -4 -1 -17 -10
-28 -18 -21 -18 -21 3 -3 13 10 29 15 40 11 12 -4 15 -3 7 3 -8 6 -9 13 -2 23
8 13 10 13 19 0 8 -13 10 -12 10 3 0 20 20 19 37 -3 7 -8 13 -10 14 -5 2 15 5
28 14 52 6 19 10 20 26 10 10 -6 19 -17 19 -24 0 -7 5 -13 10 -13 6 0 10 4 10
10 0 5 7 7 16 3 11 -4 12 -9 5 -16 -14 -14 -14 -30 -1 -22 6 3 10 -1 10 -10 0
-9 -4 -13 -10 -10 -6 3 -7 -1 -4 -9 7 -18 7 -18 28 -10 8 3 12 12 9 21 -4 11
-2 14 5 9 8 -4 12 0 13 11 0 10 3 13 5 6 3 -7 13 -9 22 -6 14 6 15 4 5 -8 -13
-16 -6 -32 15 -37 6 -1 12 8 12 20 0 21 0 21 15 2 13 -16 16 -17 25 -4 9 13
10 13 10 0 0 -9 3 -11 8 -5 4 6 21 8 37 5 l30 -6 -32 -19 c-18 -11 -33 -25
-33 -32 0 -7 -4 -13 -10 -13 -5 0 -10 -5 -10 -11 0 -5 5 -7 10 -4 6 3 10 1 10
-4 0 -6 -4 -11 -9 -11 -5 0 -11 -6 -14 -14 -4 -9 0 -12 12 -9 14 3 17 -2 17
-29 -1 -18 -5 -36 -11 -41 -5 -4 5 -5 23 -2 23 4 32 1 32 -8 0 -10 8 -13 25
-9 20 3 25 0 25 -17 0 -11 9 -30 19 -40 21 -21 22 -20 45 53 4 12 13 17 25 13
12 -3 18 1 17 12 -1 11 7 15 26 14 19 -1 25 2 24 15 -2 9 -8 18 -14 20 -7 2
-12 11 -12 19 0 9 6 13 14 10 10 -4 13 -1 9 9 -3 7 -9 14 -14 14 -5 0 -9 5 -9
11 0 5 6 7 13 4 6 -4 4 0 -5 8 -10 8 -15 17 -12 20 4 3 -9 15 -27 26 l-34 21
33 1 c17 1 38 2 45 3 6 1 18 -2 25 -7 8 -7 12 -4 12 8 0 18 24 16 26 -3 3 -23
4 -24 18 -12 8 6 12 19 9 28 -3 9 -3 14 2 10 4 -4 14 0 21 10 12 16 13 15 14
-5 0 -27 31 -31 50 -8 9 11 10 18 1 29 -9 10 -8 15 3 19 9 4 18 2 21 -3 11
-18 26 -10 20 10 -4 11 -2 19 3 18 5 -2 19 8 31 22 13 14 20 19 16 12 -4 -7 5
-26 20 -43 21 -26 23 -34 13 -47 -12 -14 -11 -14 9 -2 12 8 21 16 20 19 -1 4
2 7 7 8 5 1 13 7 17 15 5 7 9 9 9 3 0 -5 12 -11 27 -12 17 -1 21 2 13 7 -7 4
-10 15 -7 24 4 9 3 15 -1 13 -8 -2 -12 6 -12 24 0 6 9 8 22 3 20 -6 21 -5 6
10 -9 9 -21 16 -27 16 -6 0 -21 6 -34 13 -12 6 -24 13 -26 14 -10 6 26 29 39
25 13 -5 13 -3 0 12 -13 16 -12 18 5 16 33 -4 36 -1 25 20 -7 14 -7 20 0 20 5
0 10 10 10 21 0 17 3 19 13 10 8 -6 18 -7 22 -3 5 4 5 -2 2 -13 -6 -15 -1 -14
18 8 14 16 30 25 35 22 6 -3 10 1 10 9 0 9 -6 13 -14 10 -8 -3 -21 4 -29 16
-9 12 -20 19 -26 16 -5 -4 -9 2 -8 14 1 12 6 19 14 16 7 -3 13 -1 13 4 0 6 -4
10 -8 10 -5 0 -9 7 -9 15 0 9 6 14 12 11 7 -2 18 7 24 20 7 15 7 23 1 19 -5
-3 -10 -1 -10 5 0 7 -7 9 -16 6 -12 -5 -14 -1 -9 15 5 15 4 19 -4 15 -19 -12
-12 6 11 25 l21 19 -27 0 c-21 0 -27 4 -24 18 2 9 -3 22 -12 29 -10 8 -11 12
-2 13 6 0 12 5 12 11 0 5 -5 7 -10 4 -11 -7 -42 19 -33 28 3 3 -13 14 -35 24
l-41 17 33 16 c18 8 35 20 37 25 5 18 29 36 39 30 5 -3 10 -1 10 4 0 6 -6 11
-12 11 -9 1 -8 5 2 13 9 7 14 20 12 30 -3 13 3 17 24 17 l27 0 -21 19 c-23 19
-30 37 -11 25 8 -4 9 0 4 15 -5 16 -3 20 9 15 9 -3 16 -1 16 6 0 6 5 8 10 5 6
-4 6 4 -1 19 -6 13 -17 22 -24 20 -6 -3 -12 2 -12 11 0 8 4 15 9 15 4 0 8 4 8
10 0 5 -6 7 -13 4 -8 -3 -13 4 -14 16 -1 12 3 18 8 14 6 -3 17 4 26 16 8 12
21 19 29 16 8 -3 14 1 14 10 0 8 -4 12 -10 9 -5 -3 -21 6 -35 22 -19 22 -24
23 -18 8 3 -11 3 -17 -2 -13 -4 4 -14 3 -22 -3 -10 -9 -13 -7 -13 10 0 11 -5
21 -10 21 -7 0 -7 6 0 20 11 21 8 24 -25 20 -17 -2 -18 0 -5 16 13 15 13 17 0
12 -13 -4 -49 19 -39 25 2 1 14 8 26 15 13 6 28 12 34 12 6 0 18 7 27 16 15
15 14 16 -6 10 -20 -7 -24 -3 -21 22 1 4 5 6 10 5 4 -2 6 4 2 13 -3 9 0 20 7
24 8 5 4 8 -13 7 -15 -1 -27 -6 -27 -12 0 -5 -4 -4 -9 3 -4 8 -12 14 -17 14
-5 0 -8 3 -7 7 1 4 -8 13 -20 21 -20 12 -21 12 -9 -2 10 -13 8 -21 -13 -47
-15 -17 -24 -36 -20 -43 4 -7 -3 -2 -16 12 -12 14 -26 24 -31 22 -5 -1 -7 7
-3 18 6 20 -9 28 -20 10 -3 -5 -12 -7 -21 -3 -11 4 -12 9 -3 19 9 11 8 18 -1
29 -19 23 -50 19 -50 -7 -1 -21 -2 -22 -14 -6 -7 10 -17 14 -21 10 -5 -4 -5 1
-2 10 3 9 -1 22 -9 28 -14 12 -15 11 -18 -12 -2 -19 -26 -21 -26 -3 0 12 -4
15 -12 8 -7 -5 -19 -8 -25 -7 -7 1 -28 2 -45 3 l-33 1 34 21 c18 11 31 23 27
26 -3 3 2 12 12 20 9 8 11 12 5 8 -7 -3 -13 -1 -13 4 0 6 4 11 9 11 5 0 11 7
14 14 4 10 1 13 -9 9 -8 -3 -14 1 -14 10 0 8 5 17 12 19 6 2 12 11 14 20 1 13
-5 16 -24 15 -19 -1 -27 3 -26 14 1 11 -5 15 -17 12 -12 -4 -21 1 -25 13 -23
73 -24 74 -45 53 -10 -10 -19 -29 -19 -40 0 -17 -5 -20 -25 -17 -17 4 -25 1
-25 -9 0 -9 -9 -12 -32 -8 -18 3 -28 2 -23 -2 6 -5 10 -23 11 -41 0 -27 -3
-32 -17 -29 -12 3 -16 0 -12 -9 3 -8 9 -14 14 -14 5 0 9 -5 9 -11 0 -5 -4 -7
-10 -4 -5 3 -10 1 -10 -4 0 -6 5 -11 10 -11 6 0 10 -6 10 -13 0 -7 15 -21 33
-32 l32 -19 -30 -6 c-16 -3 -33 -1 -37 5 -5 6 -8 4 -8 -5 0 -13 -1 -13 -10 0
-9 13 -12 12 -25 -4 -15 -19 -15 -19 -15 2 0 12 -6 21 -12 20 -21 -5 -28 -21
-15 -37 10 -12 9 -14 -5 -8 -9 3 -19 1 -22 -6 -2 -7 -5 -4 -5 6 -1 11 -5 15
-13 11 -8 -5 -9 -2 -5 9 3 10 5 17 3 17 -3 0 -11 3 -19 6 -8 3 -17 -2 -21 -11
-3 -9 -2 -13 4 -10 6 3 10 -1 10 -10 0 -9 -4 -13 -10 -10 -13 8 -13 -8 1 -22
7 -7 6 -12 -5 -16 -9 -4 -16 -2 -16 3 0 6 -4 10 -10 10 -5 0 -10 -6 -10 -13 0
-7 -9 -18 -19 -24 -16 -10 -20 -9 -26 10 -9 24 -12 37 -14 52 -1 6 -7 3 -14
-5 -17 -22 -37 -23 -37 -3 0 15 -2 16 -10 3 -9 -13 -11 -13 -19 0 -7 10 -6 17
2 23 8 6 5 7 -7 3 -11 -4 -27 1 -40 11 -21 18 -21 18 -3 -3 9 -11 14 -24 10
-28 -4 -4 1 -4 11 0 16 6 18 4 14 -13 -3 -12 -2 -27 3 -34 12 -20 -1 -32 -19
-17 -12 10 -12 6 3 -20 11 -17 27 -35 37 -38 10 -3 16 -9 13 -14 -3 -5 -12 -7
-20 -3 -11 4 -13 1 -9 -12 6 -15 4 -16 -14 -6 -28 15 -34 14 -31 -6 1 -10 1
-27 0 -37 -1 -18 -3 -17 -21 4 -11 13 -20 18 -20 12 0 -7 -8 -12 -18 -12 -13
0 -18 -9 -20 -30 -1 -17 1 -30 5 -29 5 1 14 1 22 0 16 -1 5 -16 -12 -16 -7 0
-11 -7 -10 -15 2 -10 -6 -16 -22 -16 -16 -1 -23 2 -19 10 4 6 -1 3 -11 -6 -18
-16 -18 -19 -2 -36 23 -25 22 -29 -10 -37 -26 -6 -27 -7 -9 -20 19 -14 14 -35
-8 -35 -15 0 -16 -42 -1 -52 6 -5 5 -8 -2 -8 -8 0 -13 -16 -14 -42 0 -24 -4
-52 -8 -63 -7 -17 -8 -16 -15 9 -10 42 -55 108 -68 100 -6 -4 -8 -3 -5 3 4 6
-2 13 -13 16 -11 3 -20 9 -19 14 1 4 1 15 0 23 -1 12 -3 12 -12 -2 -13 -24
-38 -12 -31 14 4 18 2 20 -14 14 -10 -5 -32 -10 -48 -12 -22 -3 -27 0 -22 11
3 8 1 15 -4 15 -6 0 -10 7 -10 15 0 8 -5 15 -11 15 -5 0 -7 -5 -4 -10 3 -6 -1
-13 -9 -16 -9 -3 -16 -12 -16 -20 0 -17 -22 -18 -38 -2 -9 9 -12 8 -12 -5 0
-9 -2 -17 -4 -17 -2 0 -11 -3 -19 -6 -11 -4 -17 4 -22 26 -6 25 -9 29 -21 19
-10 -8 -14 -8 -14 0 0 8 -5 8 -19 -1 -11 -6 -17 -18 -13 -26 4 -11 1 -13 -9
-7 -11 6 -12 5 -2 -5 10 -11 10 -17 0 -29 -9 -11 -9 -13 0 -8 6 4 14 3 17 -2
4 -5 -3 -12 -14 -16 -11 -3 -20 -12 -20 -19 0 -9 -11 -13 -29 -11 -29 2 -30 2
-14 -22 15 -23 15 -24 -5 -30 -24 -6 -30 -22 -9 -24 9 0 9 -2 0 -5 -6 -3 -9
-16 -7 -30 5 -25 -5 -31 -22 -14 -15 15 -52 21 -59 9 -4 -5 -14 -5 -26 2 -12
6 -23 8 -27 5 -3 -3 0 -6 5 -6 6 0 10 -6 9 -12 -3 -25 -19 -40 -36 -35 -13 3
-17 0 -13 -9 4 -12 -28 -14 -191 -14 -146 0 -196 3 -196 12 0 9 -3 9 -12 0 -8
-8 -53 -12 -136 -12 l-125 0 5 49 c10 108 98 226 222 300 31 18 143 64 249
100 299 104 366 145 704 432 325 276 503 378 727 419 68 12 227 4 301 -16z"/>
<path d="M2040 2639 c0 -5 5 -7 10 -4 6 3 10 8 10 11 0 2 -4 4 -10 4 -5 0 -10
-5 -10 -11z"/>
<path d="M2360 2226 c0 -9 30 -14 35 -6 4 6 -3 10 -14 10 -12 0 -21 -2 -21 -4z"/>
<path d="M1470 2010 c-5 -10 -5 -22 1 -31 9 -12 10 -12 6 1 -2 8 5 22 16 31
18 14 18 16 3 16 -9 0 -21 -8 -26 -17z"/>
<path d="M1467 1007 c-7 -19 8 -40 30 -43 16 -2 16 -1 -3 14 -11 10 -19 23
-16 30 5 16 -5 15 -11 -1z"/>
<path d="M2370 770 c-12 -8 -10 -10 8 -10 13 0 20 4 17 10 -7 12 -6 12 -25 0z"/>
<path d="M2040 350 c0 -5 5 -10 11 -10 5 0 7 5 4 10 -3 6 -8 10 -11 10 -2 0
-4 -4 -4 -10z"/>
</g>
</svg>
